<svg version="1.1" viewBox="0.0 0.0 642.5196850393701 642.5196850393701" fill="none" stroke="none"
    stroke-linecap="square" stroke-miterlimit="10" xmlns:xlink="http://www.w3.org/1999/xlink"
    xmlns="http://www.w3.org/2000/svg">

    <style>


		.gui-ff {
			animation-duration: 7s;
			animation-iteration-count: infinite;
			animation-name: fadeInAnimation;
		}

        .ok-round, .round {
			animation-duration: 7s;
			animation-iteration-count: infinite;
			animation-name: fadeInAnimation-ok;
            opacity: 0;
        }

		@keyframes fadeInAnimation {
		  0% {
            transform: translateY(0px);
			opacity: 1;
		  }
		  40% {
            transform: translateY(0px);
			opacity: 1;
		  }
		  47% {
			opacity: 0;
		  }
		  50% {
            transform: translateY(50px);
			opacity: 0;
		  }
		  100% {
            transform: translateY(50px);
			opacity: 0;
		  }
		}

		@keyframes fadeInAnimation-ok {
		  0% {
            transform: translateY(30px);
			opacity: 0;
		  }
		  40% {
            transform: translateY(30px);
			opacity: 0;
		  }
		  47% {
			opacity: 0;
		  }
		  50% {
            transform: translateY(0px);
			opacity: 1;
		  }
		  100% {
            transform: translateY(0px);
			opacity: 1;
		  }
		}
          
	</style>

    <clipPath id="g11a94cac3b8_0_0.0">
        <path d="m0 0l642.5197 0l0 642.5197l-642.5197 0l0 -642.5197z" clip-rule="nonzero" />
    </clipPath>
    <g clip-path="url(#g11a94cac3b8_0_0.0)">
        <path fill="#ffffff" d="m0 0l642.5197 0l0 642.5197l-642.5197 0z" fill-rule="evenodd" />
        <g filter="url(#shadowFilter-g11a94cac3b8_0_0.1)">
            <use xlink:href="#g11a94cac3b8_0_0.1" transform="matrix(1.0 0.0 0.0 1.0 0.0 2.0)" />
        </g>
        <defs>
            <filter id="shadowFilter-g11a94cac3b8_0_0.1" filterUnits="userSpaceOnUse">
                <feGaussianBlur in="SourceAlpha" stdDeviation="2.0" result="blur" />
                <feComponentTransfer in="blur" color-interpolation-filters="sRGB">
                    <feFuncR type="linear" slope="0" intercept="0.0" />
                    <feFuncG type="linear" slope="0" intercept="0.0" />
                    <feFuncB type="linear" slope="0" intercept="0.0" />
                    <feFuncA type="linear" slope="0.5" intercept="0" />
                </feComponentTransfer>
            </filter>
        </defs>
        <g id="g11a94cac3b8_0_0.1">
            <path fill="#ffffff"
                d="m104.74877 453.2812c-70.79425 -126.096344 70.79424 -252.1927 0 -378.28906l235.94864 3.443222c70.79425 126.09636 -70.79425 252.1927 0 378.28906z"
                fill-rule="evenodd" />
            <path stroke="#000000" stroke-width="4.0" stroke-linejoin="round" stroke-linecap="butt"
                d="m104.74877 453.2812c-70.79425 -126.096344 70.79424 -252.1927 0 -378.28906l235.94864 3.443222c70.79425 126.09636 -70.79425 252.1927 0 378.28906z"
                fill-rule="evenodd" />
        </g>
        <g filter="url(#shadowFilter-g11a94cac3b8_0_0.2)">
            <use xlink:href="#g11a94cac3b8_0_0.2" transform="matrix(1.0 0.0 0.0 1.0 0.0 2.0)" />
        </g>
        <defs>
            <filter id="shadowFilter-g11a94cac3b8_0_0.2" filterUnits="userSpaceOnUse">
                <feGaussianBlur in="SourceAlpha" stdDeviation="2.0" result="blur" />
                <feComponentTransfer in="blur" color-interpolation-filters="sRGB">
                    <feFuncR type="linear" slope="0" intercept="0.0" />
                    <feFuncG type="linear" slope="0" intercept="0.0" />
                    <feFuncB type="linear" slope="0" intercept="0.0" />
                    <feFuncA type="linear" slope="0.5" intercept="0" />
                </feComponentTransfer>
            </filter>
        </defs>
        <g id="g11a94cac3b8_0_0.2">
            <path fill="#ffffff"
                d="m120.74877 469.2812c-70.79425 -126.096344 70.79424 -252.1927 0 -378.28906l235.94864 3.443222c70.79425 126.09636 -70.79425 252.1927 0 378.28906z"
                fill-rule="evenodd" />
            <path stroke="#000000" stroke-width="4.0" stroke-linejoin="round" stroke-linecap="butt"
                d="m120.74877 469.2812c-70.79425 -126.096344 70.79424 -252.1927 0 -378.28906l235.94864 3.443222c70.79425 126.09636 -70.79425 252.1927 0 378.28906z"
                fill-rule="evenodd" />
        </g>
        <g filter="url(#shadowFilter-g11a94cac3b8_0_0.3)">
            <use xlink:href="#g11a94cac3b8_0_0.3" transform="matrix(1.0 0.0 0.0 1.0 0.0 2.0)" />
        </g>
        <defs>
            <filter id="shadowFilter-g11a94cac3b8_0_0.3" filterUnits="userSpaceOnUse">
                <feGaussianBlur in="SourceAlpha" stdDeviation="2.0" result="blur" />
                <feComponentTransfer in="blur" color-interpolation-filters="sRGB">
                    <feFuncR type="linear" slope="0" intercept="0.0" />
                    <feFuncG type="linear" slope="0" intercept="0.0" />
                    <feFuncB type="linear" slope="0" intercept="0.0" />
                    <feFuncA type="linear" slope="0.5" intercept="0" />
                </feComponentTransfer>
            </filter>
        </defs>
        <g id="g11a94cac3b8_0_0.3">
            <path fill="#ffffff"
                d="m136.74878 485.2812c-70.79425 -126.096344 70.794235 -252.1927 0 -378.28906l235.94864 3.443222c70.79425 126.09636 -70.79425 252.1927 0 378.28906z"
                fill-rule="evenodd" />
            <path stroke="#000000" stroke-width="4.0" stroke-linejoin="round" stroke-linecap="butt"
                d="m136.74878 485.2812c-70.79425 -126.096344 70.794235 -252.1927 0 -378.28906l235.94864 3.443222c70.79425 126.09636 -70.79425 252.1927 0 378.28906z"
                fill-rule="evenodd" />
        </g>
        <g filter="url(#shadowFilter-g11a94cac3b8_0_0.4)">
            <use xlink:href="#g11a94cac3b8_0_0.4" transform="matrix(1.0 0.0 0.0 1.0 0.0 2.0)" />
        </g>
        <defs>
            <filter id="shadowFilter-g11a94cac3b8_0_0.4" filterUnits="userSpaceOnUse">
                <feGaussianBlur in="SourceAlpha" stdDeviation="2.0" result="blur" />
                <feComponentTransfer in="blur" color-interpolation-filters="sRGB">
                    <feFuncR type="linear" slope="0" intercept="0.0" />
                    <feFuncG type="linear" slope="0" intercept="0.0" />
                    <feFuncB type="linear" slope="0" intercept="0.0" />
                    <feFuncA type="linear" slope="0.5" intercept="0" />
                </feComponentTransfer>
            </filter>
        </defs>
        <g id="g11a94cac3b8_0_0.4">
            <path fill="#ffffff"
                d="m152.74878 501.2812c-70.79425 -126.096344 70.794235 -252.1927 0 -378.28906l235.94864 3.443222c70.79425 126.09636 -70.79425 252.1927 0 378.28906z"
                fill-rule="evenodd" />
            <path stroke="#000000" stroke-width="4.0" stroke-linejoin="round" stroke-linecap="butt"
                d="m152.74878 501.2812c-70.79425 -126.096344 70.794235 -252.1927 0 -378.28906l235.94864 3.443222c70.79425 126.09636 -70.79425 252.1927 0 378.28906z"
                fill-rule="evenodd" />
        </g>
        <path fill="#000000" fill-opacity="0.0"
            d="m200.88965 166.6378c-2.3889008 3.582367 6.9594574 7.064209 11.215225 6.409439c8.346695 -1.2841797 17.278687 -13.080734 24.034119 -8.013123c5.144699 3.859314 8.113342 11.558411 14.419952 12.818893c9.6577 1.9302826 19.128036 -4.789032 28.842514 -6.409439c11.075806 -1.8474884 22.53247 3.1927643 33.648285 1.6036682c12.5677185 -1.7966461 24.157562 -9.614166 36.853027 -9.614166"
            fill-rule="evenodd" />
        <path stroke="#000000" stroke-width="1.0" stroke-linejoin="round" stroke-linecap="butt"
            d="m200.88965 166.6378c-2.3889008 3.582367 6.9594574 7.064209 11.215225 6.409439c8.346695 -1.2841797 17.278687 -13.080734 24.034119 -8.013123c5.144699 3.859314 8.113342 11.558411 14.419952 12.818893c9.6577 1.9302826 19.128036 -4.789032 28.842514 -6.409439c11.075806 -1.8474884 22.53247 3.1927643 33.648285 1.6036682c12.5677185 -1.7966461 24.157562 -9.614166 36.853027 -9.614166"
            fill-rule="evenodd" />
        <path fill="#000000" fill-opacity="0.0"
            d="m200.88965 193.87665c-2.3889008 3.582367 6.9594574 7.064209 11.215225 6.409439c8.346695 -1.2841797 17.278687 -13.080734 24.034119 -8.013123c5.144699 3.859314 8.113342 11.558411 14.419952 12.818893c9.6577 1.9302826 19.128036 -4.789032 28.842514 -6.409439c11.075806 -1.8474884 22.53247 3.1927643 33.648285 1.6036682c12.5677185 -1.7966461 24.157562 -9.614166 36.853027 -9.614166"
            fill-rule="evenodd" />
        <path stroke="#000000" stroke-width="1.0" stroke-linejoin="round" stroke-linecap="butt"
            d="m200.88965 193.87665c-2.3889008 3.582367 6.9594574 7.064209 11.215225 6.409439c8.346695 -1.2841797 17.278687 -13.080734 24.034119 -8.013123c5.144699 3.859314 8.113342 11.558411 14.419952 12.818893c9.6577 1.9302826 19.128036 -4.789032 28.842514 -6.409439c11.075806 -1.8474884 22.53247 3.1927643 33.648285 1.6036682c12.5677185 -1.7966461 24.157562 -9.614166 36.853027 -9.614166"
            fill-rule="evenodd" />
        <path fill="#000000" fill-opacity="0.0"
            d="m200.88965 221.11548c-2.3889008 3.5823822 6.9594574 7.0642242 11.215225 6.4094543c8.346695 -1.2841797 17.278687 -13.080734 24.034119 -8.013123c5.144699 3.859314 8.113342 11.558411 14.419952 12.818893c9.6577 1.9302826 19.128036 -4.789032 28.842514 -6.409439c11.075806 -1.8474884 22.53247 3.1927643 33.648285 1.6036682c12.5677185 -1.7966461 24.157562 -9.614166 36.853027 -9.614166"
            fill-rule="evenodd" />
        <path stroke="#000000" stroke-width="1.0" stroke-linejoin="round" stroke-linecap="butt"
            d="m200.88965 221.11548c-2.3889008 3.5823822 6.9594574 7.0642242 11.215225 6.4094543c8.346695 -1.2841797 17.278687 -13.080734 24.034119 -8.013123c5.144699 3.859314 8.113342 11.558411 14.419952 12.818893c9.6577 1.9302826 19.128036 -4.789032 28.842514 -6.409439c11.075806 -1.8474884 22.53247 3.1927643 33.648285 1.6036682c12.5677185 -1.7966461 24.157562 -9.614166 36.853027 -9.614166"
            fill-rule="evenodd" />
        <path fill="#000000" fill-opacity="0.0"
            d="m200.88965 245.13911c-2.3889008 3.582367 6.9594574 7.064209 11.215225 6.409439c8.346695 -1.2841797 17.278687 -13.080734 24.034119 -8.013123c5.144699 3.859314 8.113342 11.558411 14.419952 12.818909c9.6577 1.9302673 19.128036 -4.7890472 28.842514 -6.4094543c11.075806 -1.8474884 22.53247 3.1927643 33.648285 1.6036682c12.5677185 -1.7966461 24.157562 -9.614166 36.853027 -9.614166"
            fill-rule="evenodd" />
        <path stroke="#000000" stroke-width="1.0" stroke-linejoin="round" stroke-linecap="butt"
            d="m200.88965 245.13911c-2.3889008 3.582367 6.9594574 7.064209 11.215225 6.409439c8.346695 -1.2841797 17.278687 -13.080734 24.034119 -8.013123c5.144699 3.859314 8.113342 11.558411 14.419952 12.818909c9.6577 1.9302673 19.128036 -4.7890472 28.842514 -6.4094543c11.075806 -1.8474884 22.53247 3.1927643 33.648285 1.6036682c12.5677185 -1.7966461 24.157562 -9.614166 36.853027 -9.614166"
            fill-rule="evenodd" />
        <path fill="#000000" fill-opacity="0.0"
            d="m200.88965 269.16272c-2.3889008 3.5823975 6.9594574 7.0642395 11.215225 6.4094543c8.346695 -1.2841797 17.278687 -13.080719 24.034119 -8.013123c5.144699 3.859314 8.113342 11.558411 14.419952 12.818909c9.6577 1.9302673 19.128036 -4.7890625 28.842514 -6.4094543c11.075806 -1.8474731 22.53247 3.192749 33.648285 1.6036682c12.5677185 -1.7966309 24.157562 -9.614166 36.853027 -9.614166"
            fill-rule="evenodd" />
        <path stroke="#000000" stroke-width="1.0" stroke-linejoin="round" stroke-linecap="butt"
            d="m200.88965 269.16272c-2.3889008 3.5823975 6.9594574 7.0642395 11.215225 6.4094543c8.346695 -1.2841797 17.278687 -13.080719 24.034119 -8.013123c5.144699 3.859314 8.113342 11.558411 14.419952 12.818909c9.6577 1.9302673 19.128036 -4.7890625 28.842514 -6.4094543c11.075806 -1.8474731 22.53247 3.192749 33.648285 1.6036682c12.5677185 -1.7966309 24.157562 -9.614166 36.853027 -9.614166"
            fill-rule="evenodd" />
        <path fill="#000000" fill-opacity="0.0"
            d="m200.88965 296.40158c-2.3889008 3.582367 6.9594574 7.064209 11.215225 6.4094543c8.346695 -1.2842102 17.278687 -13.0807495 24.034119 -8.013123c5.144699 3.8592834 8.113342 11.55838 14.419952 12.818878c9.6577 1.9302673 19.128036 -4.789032 28.842514 -6.4094543c11.075806 -1.8474731 22.53247 3.1927795 33.648285 1.6036987c12.5677185 -1.7966614 24.157562 -9.614197 36.853027 -9.614197"
            fill-rule="evenodd" />
        <path stroke="#000000" stroke-width="1.0" stroke-linejoin="round" stroke-linecap="butt"
            d="m200.88965 296.40158c-2.3889008 3.582367 6.9594574 7.064209 11.215225 6.4094543c8.346695 -1.2842102 17.278687 -13.0807495 24.034119 -8.013123c5.144699 3.8592834 8.113342 11.55838 14.419952 12.818878c9.6577 1.9302673 19.128036 -4.789032 28.842514 -6.4094543c11.075806 -1.8474731 22.53247 3.1927795 33.648285 1.6036987c12.5677185 -1.7966614 24.157562 -9.614197 36.853027 -9.614197"
            fill-rule="evenodd" />
        <path fill="#000000" fill-opacity="0.0"
            d="m200.88965 323.6404c-2.3889008 3.5823975 6.9594574 7.0642395 11.215225 6.4094543c8.346695 -1.2841797 17.278687 -13.080719 24.034119 -8.013123c5.144699 3.859314 8.113342 11.558411 14.419952 12.818909c9.6577 1.9302673 19.128036 -4.7890625 28.842514 -6.4094543c11.075806 -1.8474731 22.53247 3.192749 33.648285 1.6036682c12.5677185 -1.7966309 24.157562 -9.614166 36.853027 -9.614166"
            fill-rule="evenodd" />
        <path stroke="#000000" stroke-width="1.0" stroke-linejoin="round" stroke-linecap="butt"
            d="m200.88965 323.6404c-2.3889008 3.5823975 6.9594574 7.0642395 11.215225 6.4094543c8.346695 -1.2841797 17.278687 -13.080719 24.034119 -8.013123c5.144699 3.859314 8.113342 11.558411 14.419952 12.818909c9.6577 1.9302673 19.128036 -4.7890625 28.842514 -6.4094543c11.075806 -1.8474731 22.53247 3.192749 33.648285 1.6036682c12.5677185 -1.7966309 24.157562 -9.614166 36.853027 -9.614166"
            fill-rule="evenodd" />
        <path fill="#000000" fill-opacity="0.0"
            d="m200.88965 347.66403c-2.3889008 3.5823975 6.9594574 7.0642395 11.215225 6.4094543c8.346695 -1.2841797 17.278687 -13.080719 24.034119 -8.013123c5.144699 3.859314 8.113342 11.558411 14.419952 12.818909c9.6577 1.9302673 19.128036 -4.7890625 28.842514 -6.4094543c11.075806 -1.8474731 22.53247 3.192749 33.648285 1.6036682c12.5677185 -1.7966309 24.157562 -9.614166 36.853027 -9.614166"
            fill-rule="evenodd" />
        <path stroke="#000000" stroke-width="1.0" stroke-linejoin="round" stroke-linecap="butt"
            d="m200.88965 347.66403c-2.3889008 3.5823975 6.9594574 7.0642395 11.215225 6.4094543c8.346695 -1.2841797 17.278687 -13.080719 24.034119 -8.013123c5.144699 3.859314 8.113342 11.558411 14.419952 12.818909c9.6577 1.9302673 19.128036 -4.7890625 28.842514 -6.4094543c11.075806 -1.8474731 22.53247 3.192749 33.648285 1.6036682c12.5677185 -1.7966309 24.157562 -9.614166 36.853027 -9.614166"
            fill-rule="evenodd" />
        <path fill="#000000" fill-opacity="0.0"
            d="m200.88965 371.68765c-2.3889008 3.5823975 6.9594574 7.0642395 11.215225 6.4094543c8.346695 -1.2841797 17.278687 -13.080719 24.034119 -8.013123c5.144699 3.859314 8.113342 11.558411 14.419952 12.818909c9.6577 1.9302673 19.128036 -4.7890625 28.842514 -6.4094543c11.075806 -1.8474731 22.53247 3.192749 33.648285 1.6036682c12.5677185 -1.7966309 24.157562 -9.614166 36.853027 -9.614166"
            fill-rule="evenodd" />
        <path stroke="#000000" stroke-width="1.0" stroke-linejoin="round" stroke-linecap="butt"
            d="m200.88965 371.68765c-2.3889008 3.5823975 6.9594574 7.0642395 11.215225 6.4094543c8.346695 -1.2841797 17.278687 -13.080719 24.034119 -8.013123c5.144699 3.859314 8.113342 11.558411 14.419952 12.818909c9.6577 1.9302673 19.128036 -4.7890625 28.842514 -6.4094543c11.075806 -1.8474731 22.53247 3.192749 33.648285 1.6036682c12.5677185 -1.7966309 24.157562 -9.614166 36.853027 -9.614166"
            fill-rule="evenodd" />
        <g filter="url(#shadowFilter-g11a94cac3b8_0_0.5)">
            <use xlink:href="#g11a94cac3b8_0_0.5" transform="matrix(1.0 0.0 0.0 1.0 0.0 2.0)" />
        </g>
        <defs>
            <filter id="shadowFilter-g11a94cac3b8_0_0.5" filterUnits="userSpaceOnUse">
                <feGaussianBlur in="SourceAlpha" stdDeviation="7.0" result="blur" />
                <feComponentTransfer in="blur" color-interpolation-filters="sRGB">
                    <feFuncR type="linear" slope="0" intercept="0.0" />
                    <feFuncG type="linear" slope="0" intercept="0.0" />
                    <feFuncB type="linear" slope="0" intercept="0.0" />
                    <feFuncA type="linear" slope="0.5" intercept="0" />
                </feComponentTransfer>
            </filter>
        </defs>
        <g id="g11a94cac3b8_0_0.5">
            <path fill="#000000"
                d="m328.26904 229.12938l0 0c0 -21.239471 17.217987 -38.45746 38.45746 -38.45746l153.8252 0l0 0c10.199585 0 19.981384 4.051758 27.193542 11.263931c7.212219 7.2121735 11.263977 16.993973 11.263977 27.193527l0 320.4709c0 21.23944 -17.218018 38.45746 -38.45752 38.45746l-153.8252 0c-21.239471 0 -38.45746 -17.218018 -38.45746 -38.45746z"
                fill-rule="evenodd" />
            <path stroke="#595959" stroke-width="1.0" stroke-linejoin="round" stroke-linecap="butt"
                d="m328.26904 229.12938l0 0c0 -21.239471 17.217987 -38.45746 38.45746 -38.45746l153.8252 0l0 0c10.199585 0 19.981384 4.051758 27.193542 11.263931c7.212219 7.2121735 11.263977 16.993973 11.263977 27.193527l0 320.4709c0 21.23944 -17.218018 38.45746 -38.45752 38.45746l-153.8252 0c-21.239471 0 -38.45746 -17.218018 -38.45746 -38.45746z"
                fill-rule="evenodd" />
        </g>
        <path fill="#ffffff" d="m345.09317 233.93439l198.67715 0l0 322.04724l-198.67715 0z" fill-rule="evenodd" />
        <path stroke="#595959" stroke-width="1.0" stroke-linejoin="round" stroke-linecap="butt"
            d="m345.09317 233.93439l198.67715 0l0 322.04724l-198.67715 0z" fill-rule="evenodd" />
        <path fill="#ffffff"
            d="m369.86536 450.95856l0 0c0 -41.255066 33.420013 -74.69888 74.64566 -74.69888l0 0c19.797272 0 38.78369 7.8700256 52.78247 21.878784c13.998779 14.008759 21.86319 33.008728 21.86319 52.8201l0 0c0 41.255066 -33.419983 74.69891 -74.64566 74.69891l0 0c-41.225647 0 -74.64566 -33.443848 -74.64566 -74.69891z"
            fill-rule="evenodd" />
        <path class="round" stroke="#04aa6d" stroke-width="8.0" stroke-linejoin="round" stroke-linecap="butt"
            d="m369.86536 450.95856l0 0c0 -41.255066 33.420013 -74.69888 74.64566 -74.69888l0 0c19.797272 0 38.78369 7.8700256 52.78247 21.878784c13.998779 14.008759 21.86319 33.008728 21.86319 52.8201l0 0c0 41.255066 -33.419983 74.69891 -74.64566 74.69891l0 0c-41.225647 0 -74.64566 -33.443848 -74.64566 -74.69891z"
            fill-rule="evenodd" />
        <path fill="#000000" fill-opacity="0.0" d="m357.3622 403.70236l172.55588 0l0 94.51242l-172.55588 0z"
            fill-rule="evenodd" />
        <path class="round" fill="#04aa6d"
            d="m425.75797 474.1436q-5.453125 0 -10.03125 -1.875q-4.578125 -1.875 -7.9375 -5.265625q-3.34375 -3.390625 -5.1875 -7.953125q-1.84375 -4.578125 -1.84375 -10.03125q0 -5.390625 1.84375 -9.953125q1.84375 -4.578125 5.1875 -7.953125q3.359375 -3.390625 7.9375 -5.265625q4.578125 -1.890625 10.03125 -1.890625q5.375 0 9.953125 1.890625q4.578125 1.875 7.953125 5.265625q3.390625 3.375 5.234375 7.953125q1.859375 4.5625 1.859375 9.953125q0 5.453125 -1.859375 10.03125q-1.84375 4.5625 -5.234375 7.953125q-3.375 3.390625 -7.953125 5.265625q-4.578125 1.875 -9.953125 1.875zm0 -4.640625q4.3125 0 8.0 -1.53125q3.703125 -1.53125 6.421875 -4.3125q2.734375 -2.796875 4.234375 -6.515625q1.515625 -3.734375 1.515625 -8.125q0 -4.328125 -1.515625 -8.046875q-1.5 -3.734375 -4.234375 -6.515625q-2.71875 -2.796875 -6.421875 -4.328125q-3.6875 -1.53125 -8.0 -1.53125q-4.390625 0 -8.09375 1.53125q-3.6875 1.53125 -6.421875 4.328125q-2.71875 2.78125 -4.234375 6.515625q-1.5 3.71875 -1.5 8.046875q0 4.390625 1.5 8.125q1.515625 3.71875 4.234375 6.515625q2.734375 2.78125 6.421875 4.3125q3.703125 1.53125 8.09375 1.53125zm38.409454 -7.453125l-2.953125 -3.1875l21.421875 -19.359375q0.765625 -0.703125 1.578125 -0.671875q0.8125 0.03125 1.5 0.796875q0.6875 0.75 0.65625 1.59375q-0.03125 0.84375 -0.78125 1.46875l-21.421875 19.359375zm-1.578125 11.46875q-1.0625 0 -1.71875 -0.65625q-0.65625 -0.65625 -0.65625 -1.71875l0 -44.171875q0 -1.078125 0.65625 -1.734375q0.65625 -0.65625 1.71875 -0.65625q1.0625 0 1.71875 0.65625q0.671875 0.65625 0.671875 1.734375l0 44.171875q0 1.0625 -0.671875 1.71875q-0.65625 0.65625 -1.71875 0.65625zm23.1875 -0.3125q-0.8125 0.6875 -1.6875 0.59375q-0.875 -0.09375 -1.515625 -0.90625l-13.96875 -17.171875l3.390625 -3.0l14.09375 17.34375q0.625 0.765625 0.5625 1.609375q-0.0625 0.84375 -0.875 1.53125z"
            fill-rule="nonzero" />
        <path fill="#000000" fill-opacity="0.0" d="m359.65616 244.85039l167.96854 0l0 42.015762l-167.96854 0z"
            fill-rule="evenodd" />
        <path class="gui-ff" fill="#000000"
            d="m379.30038 272.57828q-0.40625 0 -0.6875 -0.28125q-0.28125 -0.28125 -0.28125 -0.6875l0 -12.625q0 -0.4375 0.28125 -0.703125q0.28125 -0.28125 0.6875 -0.28125l8.4375 0q0.421875 0 0.6875 0.265625q0.265625 0.25 0.265625 0.65625q0 0.390625 -0.265625 0.640625q-0.265625 0.234375 -0.6875 0.234375l-7.46875 0l0 4.53125l5.359375 0q0.421875 0 0.6875 0.25q0.265625 0.25 0.265625 0.65625q0 0.390625 -0.265625 0.640625q-0.265625 0.25 -0.6875 0.25l-5.359375 0l0 5.484375q0 0.40625 -0.28125 0.6875q-0.265625 0.28125 -0.6875 0.28125zm12.816406 0q-0.40625 0 -0.6875 -0.265625q-0.265625 -0.28125 -0.265625 -0.6875l0 -8.296875q0 -0.4375 0.265625 -0.6875q0.28125 -0.265625 0.6875 -0.265625q0.4375 0 0.6875 0.265625q0.265625 0.25 0.265625 0.6875l0 8.296875q0 0.40625 -0.265625 0.6875q-0.25 0.265625 -0.6875 0.265625zm0 -11.859375q-0.5 0 -0.875 -0.359375q-0.359375 -0.375 -0.359375 -0.875q0 -0.5 0.359375 -0.859375q0.375 -0.375 0.875 -0.375q0.5 0 0.859375 0.375q0.375 0.359375 0.375 0.859375q0 0.5 -0.375 0.875q-0.359375 0.359375 -0.859375 0.359375zm9.134186 11.9375q-1.5 0 -2.671875 -0.671875q-1.15625 -0.6875 -1.828125 -1.859375q-0.65625 -1.171875 -0.65625 -2.640625q0 -1.515625 0.65625 -2.6875q0.65625 -1.171875 1.78125 -1.828125q1.140625 -0.671875 2.625 -0.671875q1.09375 0 2.0 0.421875q0.921875 0.421875 1.65625 1.265625q0.25 0.296875 0.171875 0.609375q-0.0625 0.3125 -0.40625 0.5625q-0.25 0.1875 -0.578125 0.125q-0.3125 -0.078125 -0.578125 -0.328125q-0.90625 -0.96875 -2.265625 -0.96875q-0.953125 0 -1.6875 0.4375q-0.71875 0.4375 -1.140625 1.21875q-0.40625 0.78125 -0.40625 1.84375q0 1.015625 0.421875 1.796875q0.421875 0.78125 1.15625 1.234375q0.75 0.453125 1.75 0.453125q0.640625 0 1.140625 -0.15625q0.5 -0.15625 0.90625 -0.484375q0.296875 -0.25 0.609375 -0.28125q0.328125 -0.03125 0.5625 0.1875q0.3125 0.25 0.34375 0.578125q0.046875 0.328125 -0.21875 0.59375q-1.328125 1.25 -3.34375 1.25zm7.5249023 -3.796875q-0.40625 0 -0.6875 -0.265625q-0.265625 -0.265625 -0.265625 -0.6875l0 -8.953125q0 -0.421875 0.265625 -0.6875q0.28125 -0.265625 0.6875 -0.265625q0.4375 0 0.6875 0.265625q0.265625 0.265625 0.265625 0.6875l0 8.953125q0 0.421875 -0.265625 0.6875q-0.25 0.265625 -0.6875 0.265625zm7.671875 3.734375q-0.40625 0 -0.6875 -0.265625q-0.265625 -0.265625 -0.265625 -0.6875l0 -4.578125q0 -1.0625 -0.390625 -1.734375q-0.390625 -0.671875 -1.0625 -1.0q-0.65625 -0.328125 -1.515625 -0.328125q-0.78125 0 -1.421875 0.3125q-0.625 0.3125 -1.0 0.84375q-0.375 0.53125 -0.375 1.234375l-1.171875 0q0 -1.1875 0.5625 -2.109375q0.578125 -0.921875 1.5625 -1.453125q0.984375 -0.546875 2.21875 -0.546875q1.296875 0 2.3125 0.546875q1.015625 0.546875 1.59375 1.609375q0.59375 1.0625 0.59375 2.625l0 4.578125q0 0.421875 -0.28125 0.6875q-0.265625 0.265625 -0.671875 0.265625zm-7.671875 0q-0.40625 0 -0.6875 -0.265625q-0.265625 -0.265625 -0.265625 -0.6875l0 -8.3125q0 -0.4375 0.265625 -0.6875q0.28125 -0.265625 0.6875 -0.265625q0.4375 0 0.6875 0.265625q0.265625 0.25 0.265625 0.6875l0 8.3125q0 0.421875 -0.265625 0.6875q-0.25 0.265625 -0.6875 0.265625zm16.585968 0.0625q-1.546875 0 -2.75 -0.65625q-1.203125 -0.671875 -1.890625 -1.828125q-0.671875 -1.171875 -0.671875 -2.6875q0 -1.53125 0.640625 -2.6875q0.640625 -1.171875 1.78125 -1.828125q1.140625 -0.671875 2.609375 -0.671875q1.46875 0 2.5 0.640625q1.046875 0.640625 1.59375 1.78125q0.5625 1.125 0.5625 2.59375q0 0.359375 -0.25 0.59375q-0.234375 0.234375 -0.609375 0.234375l-7.515625 0l0 -1.5l7.453125 0l-0.765625 0.53125q-0.015625 -0.9375 -0.375 -1.671875q-0.34375 -0.734375 -1.0 -1.15625q-0.65625 -0.4375 -1.59375 -0.4375q-1.0625 0 -1.8125 0.46875q-0.75 0.453125 -1.15625 1.265625q-0.390625 0.8125 -0.390625 1.84375q0 1.03125 0.46875 1.828125q0.46875 0.796875 1.28125 1.265625q0.828125 0.46875 1.890625 0.46875q0.578125 0 1.1875 -0.203125q0.609375 -0.21875 0.984375 -0.5q0.28125 -0.203125 0.609375 -0.21875q0.328125 -0.015625 0.5625 0.203125q0.3125 0.265625 0.328125 0.609375q0.03125 0.328125 -0.296875 0.578125q-0.625 0.5 -1.578125 0.828125q-0.9375 0.3125 -1.796875 0.3125zm16.895569 0q-1.46875 0 -2.640625 -0.671875q-1.15625 -0.6875 -1.84375 -1.859375q-0.671875 -1.1875 -0.671875 -2.65625q0 -1.46875 0.625 -2.640625q0.625 -1.171875 1.703125 -1.84375q1.09375 -0.6875 2.453125 -0.6875q1.09375 0 2.03125 0.46875q0.9375 0.453125 1.5625 1.234375l0 -5.046875q0 -0.421875 0.265625 -0.6875q0.28125 -0.265625 0.6875 -0.265625q0.421875 0 0.6875 0.265625q0.265625 0.265625 0.265625 0.6875l0 8.515625q0 1.46875 -0.6875 2.65625q-0.671875 1.171875 -1.828125 1.859375q-1.15625 0.671875 -2.609375 0.671875zm0 -1.6875q0.9375 0 1.6875 -0.453125q0.75 -0.453125 1.171875 -1.25q0.4375 -0.8125 0.4375 -1.796875q0 -1.015625 -0.4375 -1.796875q-0.421875 -0.78125 -1.171875 -1.234375q-0.75 -0.453125 -1.6875 -0.453125q-0.9375 0 -1.703125 0.453125q-0.75 0.453125 -1.1875 1.234375q-0.4375 0.78125 -0.4375 1.796875q0 0.984375 0.4375 1.796875q0.4375 0.796875 1.1875 1.25q0.765625 0.453125 1.703125 0.453125zm13.271606 1.6875q-1.546875 0 -2.75 -0.65625q-1.203125 -0.671875 -1.890625 -1.828125q-0.671875 -1.171875 -0.671875 -2.6875q0 -1.53125 0.640625 -2.6875q0.640625 -1.171875 1.78125 -1.828125q1.140625 -0.671875 2.609375 -0.671875q1.46875 0 2.5 0.640625q1.046875 0.640625 1.59375 1.78125q0.5625 1.125 0.5625 2.59375q0 0.359375 -0.25 0.59375q-0.234375 0.234375 -0.609375 0.234375l-7.515625 0l0 -1.5l7.453125 0l-0.765625 0.53125q-0.015625 -0.9375 -0.375 -1.671875q-0.34375 -0.734375 -1.0 -1.15625q-0.65625 -0.4375 -1.59375 -0.4375q-1.0625 0 -1.8125 0.46875q-0.75 0.453125 -1.15625 1.265625q-0.390625 0.8125 -0.390625 1.84375q0 1.03125 0.46875 1.828125q0.46875 0.796875 1.28125 1.265625q0.828125 0.46875 1.890625 0.46875q0.578125 0 1.1875 -0.203125q0.609375 -0.21875 0.984375 -0.5q0.28125 -0.203125 0.609375 -0.21875q0.328125 -0.015625 0.5625 0.203125q0.3125 0.265625 0.328125 0.609375q0.03125 0.328125 -0.296875 0.578125q-0.625 0.5 -1.578125 0.828125q-0.9375 0.3125 -1.796875 0.3125zm13.364319 -0.078125q-0.359375 0 -0.640625 -0.25q-0.28125 -0.265625 -0.28125 -0.703125l0 -9.203125q0 -1.34375 0.53125 -2.328125q0.53125 -0.984375 1.484375 -1.53125q0.953125 -0.5625 2.203125 -0.5625q0.421875 0 0.6875 0.25q0.265625 0.25 0.265625 0.609375q0 0.359375 -0.265625 0.609375q-0.265625 0.25 -0.6875 0.25q-0.6875 0 -1.21875 0.328125q-0.515625 0.3125 -0.8125 0.875q-0.28125 0.5625 -0.28125 1.328125l0 9.375q0 0.4375 -0.265625 0.703125q-0.25 0.25 -0.71875 0.25zm-1.71875 -8.234375q-0.390625 0 -0.640625 -0.21875q-0.234375 -0.21875 -0.234375 -0.5625q0 -0.375 0.234375 -0.59375q0.25 -0.21875 0.640625 -0.21875l4.609375 0q0.390625 0 0.625 0.21875q0.25 0.21875 0.25 0.59375q0 0.34375 -0.25 0.5625q-0.234375 0.21875 -0.625 0.21875l-4.609375 0zm8.378082 1.859375q0 -1.125 0.546875 -2.0q0.546875 -0.890625 1.484375 -1.40625q0.9375 -0.53125 2.046875 -0.53125q1.125 0 1.671875 0.359375q0.5625 0.359375 0.421875 0.875q-0.046875 0.25 -0.21875 0.390625q-0.15625 0.140625 -0.359375 0.1875q-0.203125 0.03125 -0.4375 -0.03125q-1.203125 -0.234375 -2.15625 -0.03125q-0.953125 0.203125 -1.5 0.765625q-0.546875 0.5625 -0.546875 1.421875l-0.953125 0zm0.015625 6.375q-0.4375 0 -0.6875 -0.234375q-0.25 -0.234375 -0.25 -0.703125l0 -8.328125q0 -0.453125 0.25 -0.6875q0.25 -0.25 0.6875 -0.25q0.46875 0 0.703125 0.234375q0.234375 0.234375 0.234375 0.703125l0 8.328125q0 0.453125 -0.234375 0.703125q-0.234375 0.234375 -0.703125 0.234375zm11.648407 0.078125q-1.359375 0 -2.453125 -0.671875q-1.078125 -0.6875 -1.703125 -1.859375q-0.625 -1.171875 -0.625 -2.640625q0 -1.46875 0.671875 -2.640625q0.6875 -1.1875 1.84375 -1.859375q1.171875 -0.6875 2.640625 -0.6875q1.453125 0 2.609375 0.6875q1.15625 0.671875 1.828125 1.859375q0.6875 1.171875 0.6875 2.640625l-0.734375 0q0 1.46875 -0.625 2.640625q-0.625 1.171875 -1.703125 1.859375q-1.078125 0.671875 -2.4375 0.671875zm0.375 -1.6875q0.9375 0 1.6875 -0.453125q0.75 -0.453125 1.171875 -1.25q0.4375 -0.796875 0.4375 -1.78125q0 -1.0 -0.4375 -1.796875q-0.421875 -0.796875 -1.171875 -1.25q-0.75 -0.453125 -1.6875 -0.453125q-0.9375 0 -1.703125 0.453125q-0.75 0.453125 -1.1875 1.25q-0.4375 0.796875 -0.4375 1.796875q0 0.984375 0.4375 1.78125q0.4375 0.796875 1.1875 1.25q0.765625 0.453125 1.703125 0.453125zm4.171875 1.625q-0.40625 0 -0.6875 -0.265625q-0.265625 -0.265625 -0.265625 -0.6875l0 -2.84375l0.359375 -1.984375l1.546875 0.671875l0 4.15625q0 0.421875 -0.28125 0.6875q-0.265625 0.265625 -0.671875 0.265625zm4.9210815 -0.015625q-0.40625 0 -0.6875 -0.265625q-0.265625 -0.28125 -0.265625 -0.6875l0 -8.296875q0 -0.4375 0.265625 -0.6875q0.28125 -0.265625 0.6875 -0.265625q0.4375 0 0.6875 0.265625q0.265625 0.25 0.265625 0.6875l0 8.296875q0 0.40625 -0.265625 0.6875q-0.25 0.265625 -0.6875 0.265625zm0 -11.859375q-0.5 0 -0.875 -0.359375q-0.359375 -0.375 -0.359375 -0.875q0 -0.5 0.359375 -0.859375q0.375 -0.375 0.875 -0.375q0.5 0 0.859375 0.375q0.375 0.359375 0.375 0.859375q0 0.5 -0.375 0.875q-0.359375 0.359375 -0.859375 0.359375zm8.212311 11.9375q-1.3125 0 -2.421875 -0.40625q-1.109375 -0.40625 -1.71875 -1.015625q-0.28125 -0.296875 -0.234375 -0.671875q0.046875 -0.390625 0.359375 -0.640625q0.375 -0.296875 0.734375 -0.25q0.375 0.046875 0.640625 0.328125q0.3125 0.359375 1.0 0.671875q0.703125 0.296875 1.5625 0.296875q1.09375 0 1.65625 -0.34375q0.5625 -0.359375 0.59375 -0.921875q0.015625 -0.5625 -0.546875 -0.96875q-0.546875 -0.40625 -2.0 -0.671875q-1.875 -0.375 -2.734375 -1.109375q-0.84375 -0.75 -0.84375 -1.84375q0 -0.9375 0.5625 -1.5625q0.5625 -0.625 1.4375 -0.9375q0.875 -0.3125 1.828125 -0.3125q1.234375 0 2.171875 0.390625q0.953125 0.390625 1.515625 1.078125q0.265625 0.3125 0.234375 0.640625q-0.015625 0.3125 -0.3125 0.546875q-0.296875 0.203125 -0.703125 0.125q-0.40625 -0.078125 -0.6875 -0.328125q-0.46875 -0.453125 -1.015625 -0.625q-0.53125 -0.171875 -1.25 -0.171875q-0.8125 0 -1.390625 0.28125q-0.5625 0.28125 -0.5625 0.828125q0 0.328125 0.171875 0.609375q0.1875 0.265625 0.703125 0.484375q0.53125 0.203125 1.53125 0.421875q1.40625 0.265625 2.203125 0.703125q0.8125 0.421875 1.171875 1.0q0.359375 0.5625 0.359375 1.3125q0 0.859375 -0.46875 1.546875q-0.453125 0.6875 -1.34375 1.109375q-0.875 0.40625 -2.203125 0.40625z"
            fill-rule="nonzero" />
        <g filter="url(#shadowFilter-g11a94cac3b8_0_0.6)">
            <use xlink:href="#g11a94cac3b8_0_0.6" transform="matrix(1.0 0.0 0.0 1.0 0.0 2.0)" />
        </g>
        <defs>
            <filter id="shadowFilter-g11a94cac3b8_0_0.6" filterUnits="userSpaceOnUse">
                <feGaussianBlur in="SourceAlpha" stdDeviation="2.0" result="blur" />
                <feComponentTransfer in="blur" color-interpolation-filters="sRGB">
                    <feFuncR type="linear" slope="0" intercept="0.0" />
                    <feFuncG type="linear" slope="0" intercept="0.0" />
                    <feFuncB type="linear" slope="0" intercept="0.0" />
                    <feFuncA type="linear" slope="0.5" intercept="0" />
                </feComponentTransfer>
            </filter>
        </defs>
        <g class="gui-ff" id="g11a94cac3b8_0_0.6">
            <path fill="#ffffff" d="m360.44882 311.26773l167.96848 0l0 27.24408l-167.96848 0z" fill-rule="evenodd" />
            <path stroke="#000000" stroke-width="1.0" stroke-linejoin="round" stroke-linecap="butt"
                d="m360.44882 311.26773l167.96848 0l0 27.24408l-167.96848 0z" fill-rule="evenodd" />
        </g>
        <g filter="url(#shadowFilter-g11a94cac3b8_0_0.7)">
            <use xlink:href="#g11a94cac3b8_0_0.7" transform="matrix(1.0 0.0 0.0 1.0 0.0 2.0)" />
        </g>
        <defs>
            <filter id="shadowFilter-g11a94cac3b8_0_0.7" filterUnits="userSpaceOnUse">
                <feGaussianBlur in="SourceAlpha" stdDeviation="2.0" result="blur" />
                <feComponentTransfer in="blur" color-interpolation-filters="sRGB">
                    <feFuncR type="linear" slope="0" intercept="0.0" />
                    <feFuncG type="linear" slope="0" intercept="0.0" />
                    <feFuncB type="linear" slope="0" intercept="0.0" />
                    <feFuncA type="linear" slope="0.5" intercept="0" />
                </feComponentTransfer>
            </filter>
        </defs>
        <g class="gui-ff" id="g11a94cac3b8_0_0.7">
            <path fill="#ffffff" d="m360.44882 391.26773l167.96848 0l0 27.24408l-167.96848 0z" fill-rule="evenodd" />
            <path stroke="#000000" stroke-width="1.0" stroke-linejoin="round" stroke-linecap="butt"
                d="m360.44882 391.26773l167.96848 0l0 27.24408l-167.96848 0z" fill-rule="evenodd" />
        </g>
        <g filter="url(#shadowFilter-g11a94cac3b8_0_0.8)">
            <use xlink:href="#g11a94cac3b8_0_0.8" transform="matrix(1.0 0.0 0.0 1.0 0.0 2.0)" />
        </g>
        <defs>
            <filter id="shadowFilter-g11a94cac3b8_0_0.8" filterUnits="userSpaceOnUse">
                <feGaussianBlur in="SourceAlpha" stdDeviation="2.0" result="blur" />
                <feComponentTransfer in="blur" color-interpolation-filters="sRGB">
                    <feFuncR type="linear" slope="0" intercept="0.0" />
                    <feFuncG type="linear" slope="0" intercept="0.0" />
                    <feFuncB type="linear" slope="0" intercept="0.0" />
                    <feFuncA type="linear" slope="0.5" intercept="0" />
                </feComponentTransfer>
            </filter>
        </defs>
        <g class="gui-ff" id="g11a94cac3b8_0_0.8">
            <path fill="#ffffff" d="m360.44882 351.26773l167.96848 0l0 27.24408l-167.96848 0z" fill-rule="evenodd" />
            <path stroke="#000000" stroke-width="1.0" stroke-linejoin="round" stroke-linecap="butt"
                d="m360.44882 351.26773l167.96848 0l0 27.24408l-167.96848 0z" fill-rule="evenodd" />
        </g>
        <g filter="url(#shadowFilter-g11a94cac3b8_0_0.9)">
            <use xlink:href="#g11a94cac3b8_0_0.9" transform="matrix(1.0 0.0 0.0 1.0 0.0 2.0)" />
        </g>
        <defs>
            <filter id="shadowFilter-g11a94cac3b8_0_0.9" filterUnits="userSpaceOnUse">
                <feGaussianBlur in="SourceAlpha" stdDeviation="2.0" result="blur" />
                <feComponentTransfer in="blur" color-interpolation-filters="sRGB">
                    <feFuncR type="linear" slope="0" intercept="0.0" />
                    <feFuncG type="linear" slope="0" intercept="0.0" />
                    <feFuncB type="linear" slope="0" intercept="0.0" />
                    <feFuncA type="linear" slope="0.5" intercept="0" />
                </feComponentTransfer>
            </filter>
        </defs>
        <g class="gui-ff" id="g11a94cac3b8_0_0.9">
            <path fill="#04aa6d"
                d="m379.54593 463.3807l0 0c0 -3.8675232 3.135254 -7.0027466 7.002777 -7.0027466l114.18344 0c1.8572388 0 3.6384277 0.73779297 4.9516907 2.051056c1.3132935 1.3132629 2.051056 3.094452 2.051056 4.9516907l0 28.010223c0 3.8675232 -3.1352234 7.002777 -7.0027466 7.002777l-114.18344 0c-3.8675232 0 -7.002777 -3.135254 -7.002777 -7.002777z"
                fill-rule="evenodd" />
            <path stroke="#04aa6d" stroke-width="1.0" stroke-linejoin="round" stroke-linecap="butt"
                d="m379.54593 463.3807l0 0c0 -3.8675232 3.135254 -7.0027466 7.002777 -7.0027466l114.18344 0c1.8572388 0 3.6384277 0.73779297 4.9516907 2.051056c1.3132935 1.3132629 2.051056 3.094452 2.051056 4.9516907l0 28.010223c0 3.8675232 -3.1352234 7.002777 -7.0027466 7.002777l-114.18344 0c-3.8675232 0 -7.002777 -3.135254 -7.002777 -7.002777z"
                fill-rule="evenodd" />
            <path fill="#ffffff"
                d="m407.81213 484.30582q-0.3125 0 -0.53125 -0.203125q-0.203125 -0.203125 -0.203125 -0.53125l0 -13.109375q0 -0.3125 0.203125 -0.515625q0.21875 -0.21875 0.53125 -0.21875l8.75 0q0.296875 0 0.515625 0.203125q0.21875 0.203125 0.21875 0.515625q0 0.28125 -0.21875 0.484375q-0.21875 0.203125 -0.515625 0.203125l-8.015625 0l0 5.15625l5.828125 0q0.328125 0 0.53125 0.203125q0.203125 0.203125 0.203125 0.5q0 0.296875 -0.203125 0.5q-0.203125 0.203125 -0.53125 0.203125l-5.828125 0l0 5.203125l8.015625 0q0.296875 0 0.515625 0.21875q0.21875 0.203125 0.21875 0.484375q0 0.3125 -0.21875 0.515625q-0.21875 0.1875 -0.515625 0.1875l-8.75 0zm20.73825 0q-0.3125 0 -0.515625 -0.203125q-0.203125 -0.203125 -0.203125 -0.5l0 -4.859375q0 -1.15625 -0.4375 -1.890625q-0.4375 -0.75 -1.203125 -1.125q-0.75 -0.375 -1.703125 -0.375q-0.90625 0 -1.65625 0.359375q-0.734375 0.34375 -1.171875 0.96875q-0.421875 0.609375 -0.421875 1.390625l-1.015625 0q0.03125 -1.171875 0.625 -2.09375q0.609375 -0.921875 1.59375 -1.453125q0.984375 -0.53125 2.203125 -0.53125q1.3125 0 2.359375 0.546875q1.046875 0.546875 1.65625 1.609375q0.609375 1.0625 0.609375 2.59375l0 4.859375q0 0.296875 -0.203125 0.5q-0.203125 0.203125 -0.515625 0.203125zm-8.015625 0q-0.328125 0 -0.53125 -0.1875q-0.203125 -0.203125 -0.203125 -0.515625l0 -8.78125q0 -0.328125 0.203125 -0.515625q0.203125 -0.203125 0.53125 -0.203125q0.3125 0 0.5 0.203125q0.203125 0.1875 0.203125 0.515625l0 8.78125q0 0.3125 -0.203125 0.515625q-0.1875 0.1875 -0.5 0.1875zm14.835907 0q-0.453125 0 -0.671875 -0.484375l-4.140625 -8.78125q-0.109375 -0.25 -0.03125 -0.484375q0.09375 -0.25 0.375 -0.375q0.265625 -0.140625 0.5 -0.046875q0.25 0.09375 0.375 0.34375l3.984375 8.59375l-0.765625 0l3.921875 -8.59375q0.109375 -0.265625 0.375 -0.34375q0.265625 -0.09375 0.53125 0.015625q0.265625 0.140625 0.359375 0.390625q0.09375 0.25 -0.015625 0.46875l-4.09375 8.8125q-0.21875 0.484375 -0.703125 0.484375zm11.099823 0.09375q-1.5 0 -2.671875 -0.671875q-1.171875 -0.671875 -1.84375 -1.84375q-0.671875 -1.171875 -0.671875 -2.671875q0 -1.515625 0.671875 -2.6875q0.671875 -1.171875 1.84375 -1.84375q1.171875 -0.671875 2.671875 -0.671875q1.484375 0 2.65625 0.671875q1.171875 0.671875 1.84375 1.84375q0.671875 1.171875 0.6875 2.6875q0 1.5 -0.6875 2.671875q-0.671875 1.171875 -1.84375 1.84375q-1.171875 0.671875 -2.65625 0.671875zm0 -1.3125q1.078125 0 1.9375 -0.5q0.859375 -0.5 1.34375 -1.375q0.484375 -0.875 0.484375 -2.0q0 -1.125 -0.484375 -2.0q-0.484375 -0.890625 -1.34375 -1.390625q-0.859375 -0.515625 -1.9375 -0.515625q-1.078125 0 -1.9375 0.515625q-0.859375 0.5 -1.359375 1.390625q-0.5 0.875 -0.5 2.0q0 1.125 0.5 2.0q0.5 0.875 1.359375 1.375q0.859375 0.5 1.9375 0.5zm9.179657 5.65625q-0.15625 0 -0.34375 -0.078125q-0.625 -0.28125 -0.34375 -0.890625l6.015625 -13.28125q0.28125 -0.59375 0.890625 -0.34375q0.640625 0.265625 0.359375 0.890625l-6.046875 13.28125q-0.1875 0.421875 -0.53125 0.421875zm2.0625 -4.75q-0.28125 0.125 -0.53125 0.046875q-0.234375 -0.09375 -0.375 -0.375l-4.171875 -8.609375q-0.125 -0.28125 -0.03125 -0.515625q0.09375 -0.25 0.375 -0.390625q0.28125 -0.125 0.515625 -0.03125q0.25 0.078125 0.375 0.359375l4.09375 8.609375q0.140625 0.28125 0.078125 0.53125q-0.046875 0.234375 -0.328125 0.375zm10.662811 0.40625q-1.515625 0 -2.6875 -0.65625q-1.15625 -0.671875 -1.828125 -1.84375q-0.65625 -1.171875 -0.65625 -2.6875q0 -1.53125 0.625 -2.6875q0.625 -1.171875 1.71875 -1.84375q1.109375 -0.671875 2.546875 -0.671875q1.40625 0 2.453125 0.640625q1.0625 0.640625 1.640625 1.78125q0.578125 1.140625 0.578125 2.59375q0 0.296875 -0.1875 0.484375q-0.1875 0.171875 -0.484375 0.171875l-7.921875 0l0 -1.203125l8.078125 0l-0.796875 0.578125q0.015625 -1.078125 -0.40625 -1.9375q-0.40625 -0.859375 -1.15625 -1.34375q-0.75 -0.484375 -1.796875 -0.484375q-1.0625 0 -1.875 0.515625q-0.796875 0.5 -1.234375 1.390625q-0.4375 0.875 -0.4375 2.015625q0 1.140625 0.484375 2.015625q0.5 0.875 1.359375 1.390625q0.859375 0.5 1.984375 0.5q0.671875 0 1.34375 -0.234375q0.6875 -0.234375 1.09375 -0.59375q0.203125 -0.171875 0.46875 -0.171875q0.265625 -0.015625 0.4375 0.140625q0.25 0.21875 0.25 0.484375q0.015625 0.25 -0.203125 0.4375q-0.625 0.53125 -1.578125 0.875q-0.9375 0.34375 -1.8125 0.34375zm7.4236755 -6.375q0.046875 -1.15625 0.59375 -2.0625q0.5625 -0.921875 1.4375 -1.4375q0.890625 -0.53125 1.96875 -0.53125q0.859375 0 1.328125 0.25q0.46875 0.234375 0.359375 0.703125q-0.078125 0.28125 -0.265625 0.375q-0.171875 0.078125 -0.421875 0.0625q-0.25 -0.015625 -0.5625 -0.03125q-1.046875 -0.09375 -1.859375 0.21875q-0.8125 0.296875 -1.296875 0.9375q-0.46875 0.640625 -0.46875 1.515625l-0.8125 0zm0.109375 6.28125q-0.34375 0 -0.53125 -0.1875q-0.1875 -0.1875 -0.1875 -0.515625l0 -8.796875q0 -0.328125 0.1875 -0.515625q0.1875 -0.1875 0.53125 -0.1875q0.328125 0 0.515625 0.1875q0.1875 0.1875 0.1875 0.515625l0 8.796875q0 0.328125 -0.1875 0.515625q-0.1875 0.1875 -0.515625 0.1875z"
                fill-rule="nonzero" />
        </g>
        <path fill="#000000" fill-opacity="0.0" d="m206.67717 416.53018l99.37007 0l0 45.259857l-99.37007 0z"
            fill-rule="evenodd" />
        <path fill="#000000"
            d="m220.77092 446.0102q-0.34375 0 -0.59375 -0.234375q-0.234375 -0.234375 -0.234375 -0.59375l0 -13.859375l-2.125 0.734375q-0.25 0.109375 -0.4375 0.109375q-0.359375 0 -0.59375 -0.234375q-0.234375 -0.234375 -0.234375 -0.578125q0 -0.25 0.109375 -0.453125q0.125 -0.21875 0.421875 -0.328125l3.28125 -1.140625q0.109375 -0.03125 0.21875 -0.0625q0.125 -0.03125 0.21875 -0.03125q0.359375 0 0.578125 0.25q0.21875 0.234375 0.21875 0.578125l0 15.015625q0 0.359375 -0.234375 0.59375q-0.234375 0.234375 -0.59375 0.234375zm9.7495575 0q-1.53125 0 -2.75 -0.703125q-1.21875 -0.71875 -1.9375 -1.9375q-0.703125 -1.234375 -0.703125 -2.78125q0 -0.359375 0.234375 -0.59375q0.234375 -0.234375 0.578125 -0.234375q0.359375 0 0.59375 0.234375q0.25 0.234375 0.25 0.59375q0 1.078125 0.484375 1.9375q0.5 0.84375 1.34375 1.34375q0.84375 0.484375 1.90625 0.484375q1.0625 0 1.921875 -0.484375q0.859375 -0.5 1.34375 -1.34375q0.484375 -0.859375 0.484375 -1.9375q0 -1.0625 -0.484375 -1.90625q-0.484375 -0.859375 -1.34375 -1.34375q-0.859375 -0.5 -1.921875 -0.5l-3.734375 0q-0.359375 0 -0.59375 -0.234375q-0.234375 -0.25 -0.234375 -0.59375l0 -5.84375q0 -0.34375 0.234375 -0.578125q0.234375 -0.25 0.59375 -0.25l7.484375 0q0.34375 0 0.59375 0.25q0.25 0.234375 0.25 0.578125q0 0.34375 -0.234375 0.59375q-0.234375 0.234375 -0.609375 0.234375l-6.671875 0l0 4.1875l2.921875 0q1.5625 0 2.765625 0.71875q1.21875 0.703125 1.9375 1.9375q0.71875 1.21875 0.71875 2.75q0 1.546875 -0.71875 2.78125q-0.71875 1.21875 -1.9375 1.9375q-1.203125 0.703125 -2.765625 0.703125zm8.888412 0.34375q-0.5 0 -0.875 -0.359375q-0.359375 -0.375 -0.359375 -0.875q0 -0.53125 0.375 -0.890625q0.375 -0.375 0.859375 -0.375q0.515625 0 0.875 0.375q0.375 0.375 0.375 0.890625q0 0.484375 -0.359375 0.859375q-0.34375 0.375 -0.890625 0.375zm7.5348053 -0.34375q-1.578125 0 -2.71875 -1.0q-1.125 -1.0 -1.71875 -2.859375q-0.578125 -1.875 -0.578125 -4.5q0 -2.578125 0.578125 -4.453125q0.59375 -1.875 1.71875 -2.875q1.140625 -1.015625 2.71875 -1.015625q1.625 0 2.734375 1.015625q1.125 1.015625 1.703125 2.890625q0.59375 1.875 0.59375 4.4375q0 2.59375 -0.59375 4.46875q-0.578125 1.859375 -1.703125 2.875q-1.109375 1.015625 -2.734375 1.015625zm0 -1.65625q1.15625 0 1.890625 -0.859375q0.75 -0.875 1.109375 -2.390625q0.375 -1.515625 0.375 -3.453125q0 -1.921875 -0.375 -3.421875q-0.375 -1.5 -1.125 -2.375q-0.75 -0.875 -1.875 -0.875q-1.125 0 -1.875 0.859375q-0.734375 0.859375 -1.109375 2.375q-0.359375 1.515625 -0.359375 3.4375q0 1.953125 0.359375 3.46875q0.375 1.5 1.109375 2.375q0.75 0.859375 1.875 0.859375zm12.178406 1.65625q-1.578125 0 -2.71875 -1.0q-1.125 -1.0 -1.71875 -2.859375q-0.578125 -1.875 -0.578125 -4.5q0 -2.578125 0.578125 -4.453125q0.59375 -1.875 1.71875 -2.875q1.140625 -1.015625 2.71875 -1.015625q1.625 0 2.734375 1.015625q1.125 1.015625 1.703125 2.890625q0.59375 1.875 0.59375 4.4375q0 2.59375 -0.59375 4.46875q-0.578125 1.859375 -1.703125 2.875q-1.109375 1.015625 -2.734375 1.015625zm0 -1.65625q1.15625 0 1.890625 -0.859375q0.75 -0.875 1.109375 -2.390625q0.375 -1.515625 0.375 -3.453125q0 -1.921875 -0.375 -3.421875q-0.375 -1.5 -1.125 -2.375q-0.75 -0.875 -1.875 -0.875q-1.125 0 -1.875 0.859375q-0.734375 0.859375 -1.109375 2.375q-0.359375 1.515625 -0.359375 3.4375q0 1.953125 0.359375 3.46875q0.375 1.5 1.109375 2.375q0.75 0.859375 1.875 0.859375zm17.209656 1.875q-1.71875 0 -3.234375 -0.65625q-1.5 -0.671875 -2.640625 -1.84375q-1.140625 -1.1875 -1.78125 -2.734375q-0.640625 -1.546875 -0.640625 -3.328125q0 -1.75 0.625 -3.296875q0.640625 -1.546875 1.78125 -2.71875q1.140625 -1.171875 2.640625 -1.84375q1.5 -0.671875 3.25 -0.671875q1.53125 0 2.796875 0.453125q1.265625 0.453125 2.4375 1.421875q0.1875 0.15625 0.21875 0.359375q0.03125 0.203125 -0.0625 0.390625q-0.078125 0.171875 -0.25 0.265625q-0.046875 0.15625 -0.21875 0.25q-0.15625 0.078125 -0.390625 0.0625q-0.21875 -0.015625 -0.4375 -0.1875q-0.828125 -0.734375 -1.8125 -1.078125q-0.984375 -0.359375 -2.28125 -0.359375q-1.390625 0 -2.59375 0.5625q-1.203125 0.546875 -2.125 1.515625q-0.90625 0.953125 -1.4375 2.21875q-0.515625 1.25 -0.515625 2.65625q0 1.453125 0.515625 2.71875q0.53125 1.25 1.4375 2.21875q0.921875 0.953125 2.125 1.5q1.203125 0.546875 2.59375 0.546875q1.171875 0 2.21875 -0.390625q1.046875 -0.390625 1.984375 -1.109375q0.25 -0.21875 0.53125 -0.171875q0.296875 0.046875 0.515625 0.265625q0.21875 0.203125 0.21875 0.546875q0 0.171875 -0.0625 0.3125q-0.046875 0.140625 -0.171875 0.28125q-1.09375 1.0 -2.4375 1.421875q-1.34375 0.421875 -2.796875 0.421875zm-9.8125 -6.171875q-0.34375 0 -0.5625 -0.203125q-0.203125 -0.203125 -0.203125 -0.546875q0 -0.265625 0.203125 -0.46875q0.21875 -0.203125 0.5625 -0.203125l10.4375 0q0.3125 0 0.53125 0.203125q0.21875 0.203125 0.21875 0.46875q0 0.34375 -0.21875 0.546875q-0.21875 0.203125 -0.53125 0.203125l-10.4375 0zm0 -3.578125q-0.34375 0 -0.5625 -0.203125q-0.203125 -0.203125 -0.203125 -0.53125q0 -0.296875 0.203125 -0.5q0.21875 -0.203125 0.5625 -0.203125l11.921875 0q0.328125 0 0.53125 0.203125q0.21875 0.203125 0.21875 0.5q0 0.328125 -0.21875 0.53125q-0.203125 0.203125 -0.53125 0.203125l-11.921875 0z"
            fill-rule="nonzero" />
    </g>
</svg>